<svg xmlns="http://www.w3.org/2000/svg" viewBox="0 0 128 128">
  <path d="M79.3 15.7c-1.2 0-2.5 0-3.8.4-3.4.9-6.2 3.1-7.9 6.1L64 28.7a3 3 0 001.1 4.1l17.3 10c.5.3 1 .4 1.5.4l.8-.1c.8-.2 1.4-.7 1.8-1.4l3.7-6.5c1.7-3 2.2-6.5 1.3-9.9-.9-3.4-3.1-6.2-6.1-7.9-1.9-1-4-1.7-6-1.7zM60.1 38a3 3 0 00-2.4 1.5L27.5 92a42.4 42.4 0 00-5.7 18.9l-.8 12.9a3 3 0 004.7 2.7l10.8-7.1A43.3 43.3 0 0050 105l30.3-52.4a3 3 0 00-1.1-4.1 3 3 0 00-4.1 1.1L44.8 102a38.5 38.5 0 01-11.7 12.4l-5.8 3.8.4-6.9c.3-5.7 2-11.3 4.9-16.3l30.3-52.4a3 3 0 00-1.1-4.1 3 3 0 00-1.7-.4zM49 121a3 3 0 00-3 3 3 3 0 003 3h40a3 3 0 003-3 3 3 0 00-3-3H49zm55 0a3 3 0 00-3 3 3 3 0 003 3 3 3 0 003-3 3 3 0 00-3-3z"/>
</svg>
